<svg width="796" height="474" viewBox="0 0 796 474" fill="none" xmlns="http://www.w3.org/2000/svg">
<g clip-path="url(#clip0_701_83)" filter="url(#filter0_i_701_83)">
<path d="M715.149 139.992C696.353 120.516 693.829 111.154 672.195 127.464C631.902 159.624 583.365 180.326 540.524 209.026C596.229 225.81 645.351 219.034 702.104 178.301C727.917 159.573 728.575 156.678 715.149 139.992Z" fill="url(#paint0_linear_701_83)"/>
<path d="M663.003 107.541C661.729 80.5607 621.817 68.4565 605.278 56.54C573.947 31.7503 568.012 103.028 389.697 205.059C438.241 217.203 491.293 209.079 535.169 186.633C537.111 185.629 647.917 131.885 663.003 107.541Z" fill="url(#paint1_linear_701_83)"/>
<path d="M752.926 189.309C742.196 176.054 741.615 173.389 670.672 225.789C682.344 230.142 772.692 247.85 781.039 249.421C785.445 250.782 789.522 248.455 791.589 244.767C792.34 234.267 780.499 227.654 752.926 189.309Z" fill="url(#paint2_linear_701_83)"/>
<path d="M526.473 32.5329C508.188 29.9272 490.638 23.9887 472.354 21.355C436.22 17.2638 431.894 33.4374 401.328 74.7233C354.763 143.12 282.937 187.613 262.145 204.931C258.758 207.598 256.316 211.073 254.294 214.747C290.307 215.065 327.788 212.15 360.231 195.989C419.527 166.577 473.651 128.302 522.378 85.0362C554.486 52.0715 574.73 41.3292 526.473 32.5329Z" fill="url(#paint3_linear_701_83)"/>
<path d="M754.158 273.508C733.536 270.137 713.272 264.327 692.321 262.914C698.987 282.966 734.311 313.799 749.863 303.107C760.997 295.898 774.376 275.923 754.158 273.508Z" fill="url(#paint4_linear_701_83)"/>
<path d="M416.348 20.36C408.277 8.8807 364.283 6.85183 349.64 7.39786C307.33 9.68836 294.798 16.6619 275.226 55.1793C228.384 152.411 182.833 171.697 134.87 237.619C168.055 243.479 222.257 204.507 235.017 196.285C281.888 165.677 302.849 164.853 407.81 38.9403C411.915 33.465 416.904 27.4648 416.348 20.36Z" fill="url(#paint5_linear_701_83)"/>
<path d="M697.08 304.65C647.811 261.32 585.116 248.713 523.506 239.436C522.921 240.358 521.753 242.202 521.168 243.124C524.497 251.604 531.647 258.055 540.415 261.471C663.654 328.15 641.126 400.804 688.132 365.692C716.207 341.33 722.663 328.218 697.08 304.65Z" fill="url(#paint6_linear_701_83)"/>
<path d="M374.673 241.978C388.764 253.431 496.862 308.232 565.968 403.414C583.017 425.629 584.11 423.575 611.56 413.388C619.292 410.635 626.98 406.308 630.994 399.216C651.484 332.491 435.501 207.766 374.673 241.978Z" fill="url(#paint7_linear_701_83)"/>
<path d="M249.16 37.6131C127.328 80.2596 71.5847 179.819 10.3671 272.733C11.2513 273.314 13.0198 274.448 13.8893 275.015C118.627 257.755 276.961 46.8142 249.16 37.6131Z" fill="url(#paint8_linear_701_83)"/>
<path d="M546.91 427.925C551.535 408.242 532.317 394.446 447.015 317.354C396.226 271.579 337.106 253.605 267.144 245.986C248.845 243.679 230.262 248.618 214.228 256.819C268.09 281.013 344.458 338.632 399.82 381.978C471.398 441.875 433.581 466.66 499.528 452.271C516.716 447.432 536.963 443.726 546.91 427.925Z" fill="url(#paint9_linear_701_83)"/>
<path d="M112.519 281.418C112.759 282.694 113.209 285.247 113.449 286.524C122.903 296.123 172.762 327.271 188.364 340.853C286.125 429.046 249.191 453.127 382.709 463.515C395.252 464.377 407.662 466.445 420.251 466.556C466.274 437.262 159.467 200.6 112.519 281.418Z" fill="url(#paint10_linear_701_83)"/>
<path d="M151.257 341.74C62.4656 267.618 4.83832 306.43 4.42773 318.953C4.83393 324.923 11.1436 328.056 15.5807 331.288C118.474 394.192 80.1763 386.062 219.303 438.291C225.298 441.069 231.697 438.955 235.803 434.246C235.607 431.196 236.026 427.878 233.957 425.297C232.449 422.978 178.466 365.409 151.257 341.74Z" fill="url(#paint11_linear_701_83)"/>
</g>
<defs>
<filter id="filter0_i_701_83" x="0.359375" y="0.2229" width="795.312" height="477.423" filterUnits="userSpaceOnUse" color-interpolation-filters="sRGB">
<feFlood flood-opacity="0" result="BackgroundImageFix"/>
<feBlend mode="normal" in="SourceGraphic" in2="BackgroundImageFix" result="shape"/>
<feColorMatrix in="SourceAlpha" type="matrix" values="0 0 0 0 0 0 0 0 0 0 0 0 0 0 0 0 0 0 127 0" result="hardAlpha"/>
<feOffset dy="4"/>
<feGaussianBlur stdDeviation="2"/>
<feComposite in2="hardAlpha" operator="arithmetic" k2="-1" k3="1"/>
<feColorMatrix type="matrix" values="0 0 0 0 0 0 0 0 0 0 0 0 0 0 0 0 0 0 0.25 0"/>
<feBlend mode="normal" in2="shape" result="effect1_innerShadow_701_83"/>
</filter>
<linearGradient id="paint0_linear_701_83" x1="723.8" y1="168.32" x2="540.515" y2="168.36" gradientUnits="userSpaceOnUse">
<stop offset="0.234375" stop-color="#32761F"/>
<stop offset="0.9999" stop-color="#29BF00" stop-opacity="0"/>
<stop offset="1" stop-color="#37FF00" stop-opacity="0"/>
</linearGradient>
<linearGradient id="paint1_linear_701_83" x1="663.008" y1="131.108" x2="389.681" y2="131.167" gradientUnits="userSpaceOnUse">
<stop offset="0.234375" stop-color="#32761F"/>
<stop offset="0.9999" stop-color="#29BF00" stop-opacity="0"/>
<stop offset="1" stop-color="#37FF00" stop-opacity="0"/>
</linearGradient>
<linearGradient id="paint2_linear_701_83" x1="791.616" y1="215.493" x2="670.67" y2="215.519" gradientUnits="userSpaceOnUse">
<stop offset="0.234375" stop-color="#32761F"/>
<stop offset="0.9999" stop-color="#29BF00" stop-opacity="0"/>
<stop offset="1" stop-color="#37FF00" stop-opacity="0"/>
</linearGradient>
<linearGradient id="paint3_linear_701_83" x1="555.246" y1="117.713" x2="254.273" y2="117.778" gradientUnits="userSpaceOnUse">
<stop offset="0.234375" stop-color="#32761F"/>
<stop offset="0.9999" stop-color="#29BF00" stop-opacity="0"/>
<stop offset="1" stop-color="#37FF00" stop-opacity="0"/>
</linearGradient>
<linearGradient id="paint4_linear_701_83" x1="764.62" y1="284.096" x2="692.325" y2="284.112" gradientUnits="userSpaceOnUse">
<stop offset="0.234375" stop-color="#32761F"/>
<stop offset="0.9999" stop-color="#29BF00" stop-opacity="0"/>
<stop offset="1" stop-color="#37FF00" stop-opacity="0"/>
</linearGradient>
<linearGradient id="paint5_linear_701_83" x1="416.413" y1="122.731" x2="134.845" y2="122.792" gradientUnits="userSpaceOnUse">
<stop offset="0.234375" stop-color="#32761F"/>
<stop offset="0.9999" stop-color="#29BF00" stop-opacity="0"/>
<stop offset="1" stop-color="#37FF00" stop-opacity="0"/>
</linearGradient>
<linearGradient id="paint6_linear_701_83" x1="713.133" y1="307.113" x2="521.182" y2="307.154" gradientUnits="userSpaceOnUse">
<stop offset="0.234375" stop-color="#32761F"/>
<stop offset="0.9999" stop-color="#29BF00" stop-opacity="0"/>
<stop offset="1" stop-color="#37FF00" stop-opacity="0"/>
</linearGradient>
<linearGradient id="paint7_linear_701_83" x1="632.346" y1="328.413" x2="374.692" y2="328.469" gradientUnits="userSpaceOnUse">
<stop offset="0.234375" stop-color="#32761F"/>
<stop offset="0.9999" stop-color="#29BF00" stop-opacity="0"/>
<stop offset="1" stop-color="#37FF00" stop-opacity="0"/>
</linearGradient>
<linearGradient id="paint8_linear_701_83" x1="252.406" y1="156.288" x2="10.342" y2="156.34" gradientUnits="userSpaceOnUse">
<stop offset="0.234375" stop-color="#32761F"/>
<stop offset="0.9999" stop-color="#29BF00" stop-opacity="0"/>
<stop offset="1" stop-color="#37FF00" stop-opacity="0"/>
</linearGradient>
<linearGradient id="paint9_linear_701_83" x1="547.533" y1="350.8" x2="214.248" y2="350.872" gradientUnits="userSpaceOnUse">
<stop offset="0.234375" stop-color="#32761F"/>
<stop offset="0.9999" stop-color="#29BF00" stop-opacity="0"/>
<stop offset="1" stop-color="#37FF00" stop-opacity="0"/>
</linearGradient>
<linearGradient id="paint10_linear_701_83" x1="424.92" y1="365.591" x2="112.537" y2="365.658" gradientUnits="userSpaceOnUse">
<stop offset="0.234375" stop-color="#32761F"/>
<stop offset="0.9999" stop-color="#29BF00" stop-opacity="0"/>
<stop offset="1" stop-color="#37FF00" stop-opacity="0"/>
</linearGradient>
<linearGradient id="paint11_linear_701_83" x1="235.788" y1="368.54" x2="4.43842" y2="368.59" gradientUnits="userSpaceOnUse">
<stop offset="0.234375" stop-color="#32761F"/>
<stop offset="0.9999" stop-color="#29BF00" stop-opacity="0"/>
<stop offset="1" stop-color="#37FF00" stop-opacity="0"/>
</linearGradient>
<clipPath id="clip0_701_83">
<rect width="473.252" height="795.211" fill="white" transform="matrix(-0.00021529 -1 -1 0.00021529 795.672 473.475)"/>
</clipPath>
</defs>
</svg>
